<svg id="Layer_2" data-name="Layer 2" xmlns="http://www.w3.org/2000/svg" viewBox="0 0 80.24 81.46"><defs><style>.cls-1{fill:#fff;}</style></defs><title>SettingsButton</title><g id="wRnMCQ.tif"><path class="cls-1" d="M78.92,51.13c-2.72-1.89-5.44-3.79-8.18-5.66a1.14,1.14,0,0,1-.57-1.18c.15-1.6.27-3.2.34-4.8a5.75,5.75,0,0,0-.2-1.9c-.22-.67.07-1,.52-1.33q3.69-3,7.37-5.95c1.38-1.12,1.52-1.86.65-3.38q-3.69-6.48-7.4-13c-.84-1.47-1.7-1.78-3.32-1.14-2.14.84-4.26,1.7-6.4,2.55-1,.41-2,.83-3.06,1.2a1,1,0,0,1-.78-.09c-2-1.15-4-2.36-6-3.51a1.14,1.14,0,0,1-.68-1c-.47-3.22-1-6.44-1.48-9.66a1.8,1.8,0,0,1,0-.4,1.67,1.67,0,0,0-1.84-2C46,0,44.2,0,42.38,0H32a2.2,2.2,0,0,0-2.5,2.11q-.78,5-1.5,10c-.07.47-.3.63-.68.85-1.92,1.1-3.81,2.24-5.69,3.41a1.32,1.32,0,0,1-1.39.14c-2.84-1.22-5.71-2.4-8.56-3.59-1.76-.74-2.88-.35-3.83,1.31C5.37,18.6,2.88,23,.34,27.36A2,2,0,0,0,.5,29.8a4,4,0,0,0,.8.78c2.5,1.92,5,3.86,7.54,5.73a1.45,1.45,0,0,1,.62,1.49c-.13,1.76-.21,3.52-.31,5.27a1.49,1.49,0,0,0,0,.64c.53,1.12-.11,1.7-.92,2.33-2.34,1.83-4.64,3.71-6.94,5.58-1.25,1-1.4,1.82-.61,3.21,2.48,4.34,5,8.65,7.41,13A2.32,2.32,0,0,0,11.52,69c3-1.18,6-2.35,8.92-3.59a1.66,1.66,0,0,1,1.78.23c1.78,1.12,3.64,2.14,5.49,3.15a1.29,1.29,0,0,1,.75,1.09c.46,3.23,1,6.45,1.45,9.67a2.44,2.44,0,0,0,1.41,1.87H48.84a2.77,2.77,0,0,0,1.8-2.56c.38-3.1.91-6.18,1.42-9.27a1.15,1.15,0,0,1,.54-.69q3.09-1.86,6.22-3.64a1.18,1.18,0,0,1,.86,0q4.59,1.82,9.15,3.65c1.64.65,2.35.4,3.23-1.14l7.63-13.37C80.6,52.91,80.42,52.17,78.92,51.13ZM40.06,60.39c-11.49,0-19.84-9.78-19.62-20.43.21-10,9.29-18.89,19.69-18.89a19.66,19.66,0,1,1-.07,39.32Z" transform="translate(0 0)"/></g></svg>
