<svg xmlns="http://www.w3.org/2000/svg" viewBox="0 0 200 43.68">
  <defs>
    <style>
      .cls-1 {
        fill: #fff;
      }
    </style>
  </defs>
  <title>jgcc-logo-white</title>
  <g id="Layer_2" data-name="Layer 2">
    <g id="Layer_1-2" data-name="Layer 1">
      <g>
        <g>
          <path class="cls-1" d="M6.71,30.48v-22a9.18,9.18,0,0,0-.48-3.57,2.56,2.56,0,0,0-1.88-1.3L3,3.28c-.43-.09-.65-.28-.65-.58s.24-.48.72-.47c.29,0,.81.07,1.56.16s2,.13,3.7.13c1.46,0,2.37,0,2.73-.07.71-.1,1.13-.15,1.24-.15.28,0,.42.13.42.4s-.21.46-.61.56a2.61,2.61,0,0,0-1.65,1,4.34,4.34,0,0,0-.44,2.27V8.3l0,.91v19.1l0,1-.28,2.87a12.25,12.25,0,0,1-3.06,6,6.76,6.76,0,0,1-4.91,2.42,2.31,2.31,0,0,1-1.28-.34A.94.94,0,0,1,0,39.51,2,2,0,0,1,.09,39c0-.12.11-.38.2-.8.19-.91.47-1.36.84-1.36.17,0,.43.19.76.58a2.49,2.49,0,0,0,1.9,1q1.27,0,2.13-1.65a8.81,8.81,0,0,0,.86-4.09Z"/>
          <path class="cls-1" d="M17.26,14.51v.41A8.17,8.17,0,0,0,19,20.27a5.37,5.37,0,0,0,4.34,2.17,7.52,7.52,0,0,0,4.42-1.82.54.54,0,0,1,.28-.13c.17,0,.26.08.26.29,0,.37-.44.9-1.3,1.58a8.23,8.23,0,0,1-5.13,1.89,6.55,6.55,0,0,1-5.09-2.31,8.28,8.28,0,0,1-2.06-5.71,8.35,8.35,0,0,1,2.12-5.66,6.45,6.45,0,0,1,5-2.43,5.82,5.82,0,0,1,5,2.59,9.39,9.39,0,0,1,.91,1.71A4.71,4.71,0,0,1,28.18,14c0,.41-.41.61-1.21.61H25.59l-1.27,0Zm.12-1h6.31c1,0,1.47-.19,1.47-.59a3.75,3.75,0,0,0-1.26-2.7,3.8,3.8,0,0,0-2.72-1.25,3.2,3.2,0,0,0-2.55,1.22A6.21,6.21,0,0,0,17.38,13.48Z"/>
          <path class="cls-1" d="M38.82,15.57v-2.3a4.14,4.14,0,0,0-.8-2.94,3.85,3.85,0,0,0-2.9-1.11q-2.46,0-2.46,2.07a5,5,0,0,0,.24,1.4,2.11,2.11,0,0,1,.13.59c0,.22-.11.33-.37.33a3.35,3.35,0,0,1-1.58-.37c-.47-.25-.71-.52-.71-.82a3.83,3.83,0,0,1,1.25-2.48,5.78,5.78,0,0,1,4.45-1.8A6.11,6.11,0,0,1,40,9.26a3.86,3.86,0,0,1,1.4,3.18v7.29a5.29,5.29,0,0,0,.41,2.46,1.5,1.5,0,0,0,1.41.74,1.82,1.82,0,0,0,.45,0,2.39,2.39,0,0,1,.44-.07c.22,0,.31.07.3.26s-.3.45-.88.68a4.46,4.46,0,0,1-1.68.34,3.4,3.4,0,0,1-2.76-1.9,8.48,8.48,0,0,1-5,2.05,4,4,0,0,1-2.78-.94,3.25,3.25,0,0,1-1-2.53,3.7,3.7,0,0,1,1.95-3.32A19.09,19.09,0,0,1,38.82,15.57Zm0,.75a9.59,9.59,0,0,0-4.46,1.3,3.12,3.12,0,0,0-1.57,2.68,2.59,2.59,0,0,0,2.78,2.78,3.63,3.63,0,0,0,2.61-1A2.83,2.83,0,0,0,38.82,20Z"/>
          <path class="cls-1" d="M50.8,11.1q2.49-3,5.18-3a5.48,5.48,0,0,1,4.71,2.44,8.9,8.9,0,0,1,1.19,5.11v4.46l0,.56.06.89A1.66,1.66,0,0,0,63.48,23l.78.11c.34.05.51.17.53.36s-.2.4-.62.4q-.19,0-.72-.06a18.71,18.71,0,0,0-2.27-.09l-1.84.06h-.7l-.54,0-.26-.06a.3.3,0,0,1-.13-.29q0-.29.33-.36L58.6,23c.5-.12.75-.57.75-1.34V15.25a5.94,5.94,0,0,0-1.2-4,4.19,4.19,0,0,0-3.39-1.41,4.51,4.51,0,0,0-2.76.91,2.62,2.62,0,0,0-1.2,2.09V20l0,.56,0,.93c.06,1.05.92,1.62,2.58,1.72.41,0,.62.17.62.4s-.14.34-.43.34a6.21,6.21,0,0,1-1-.1c-.23,0-.82,0-1.75,0q-3,0-3.54.09l-.74.06c-.24,0-.35-.1-.34-.3s.13-.28.36-.37a2.43,2.43,0,0,0,1.27-.82,2.83,2.83,0,0,0,.33-1.56v-8.4a3.56,3.56,0,0,0-.32-1.8,1.35,1.35,0,0,0-1.19-.47l-.8,0a.61.61,0,0,1-.3-.08.28.28,0,0,1-.17-.27c0-.18.16-.3.49-.36a9.72,9.72,0,0,0,2.4-.76l1-.49.72-.35a1,1,0,0,1,.45-.15q.33,0,.3.54c0,.2,0,.43,0,.71Z"/>
          <path class="cls-1" d="M71.21,11.1q2.49-3,5.18-3a5.48,5.48,0,0,1,4.71,2.44,8.9,8.9,0,0,1,1.19,5.11v4.46l0,.56.06.89A1.66,1.66,0,0,0,83.89,23l.78.11c.34.05.51.17.53.36s-.2.4-.62.4q-.19,0-.72-.06a18.71,18.71,0,0,0-2.27-.09l-1.84.06h-.7l-.54,0-.26-.06a.3.3,0,0,1-.13-.29q0-.29.33-.36L79,23c.5-.12.75-.57.75-1.34V15.25a5.94,5.94,0,0,0-1.2-4,4.19,4.19,0,0,0-3.39-1.41,4.51,4.51,0,0,0-2.76.91,2.62,2.62,0,0,0-1.2,2.09V20l0,.56,0,.93c.06,1.05.92,1.62,2.58,1.72.41,0,.62.17.62.4s-.14.34-.43.34a6.21,6.21,0,0,1-1-.1c-.23,0-.82,0-1.75,0q-3,0-3.54.09l-.74.06c-.24,0-.35-.1-.34-.3s.13-.28.36-.37a2.43,2.43,0,0,0,1.27-.82,2.83,2.83,0,0,0,.33-1.56v-8.4a3.56,3.56,0,0,0-.32-1.8,1.35,1.35,0,0,0-1.19-.47l-.8,0a.61.61,0,0,1-.3-.08.28.28,0,0,1-.17-.27c0-.18.16-.3.49-.36a9.72,9.72,0,0,0,2.4-.76l1-.49.72-.35a1,1,0,0,1,.45-.15q.33,0,.3.54c0,.2,0,.43,0,.71Z"/>
          <path class="cls-1" d="M88.22,14.51l0,.41A8.18,8.18,0,0,0,90,20.27a5.37,5.37,0,0,0,4.33,2.17,7.5,7.5,0,0,0,4.42-1.82.58.58,0,0,1,.28-.13c.18,0,.27.08.27.29,0,.37-.44.9-1.31,1.58a8.18,8.18,0,0,1-5.12,1.89,6.55,6.55,0,0,1-5.09-2.31,8.23,8.23,0,0,1-2.06-5.71,8.35,8.35,0,0,1,2.12-5.66,6.43,6.43,0,0,1,5-2.43,5.84,5.84,0,0,1,5,2.59,10.05,10.05,0,0,1,.91,1.71A4.61,4.61,0,0,1,99.13,14c0,.41-.4.61-1.21.61H96.54l-1.27,0Zm.11-1h6.32c1,0,1.47-.19,1.47-.59a3.75,3.75,0,0,0-1.26-2.7,3.84,3.84,0,0,0-2.73-1.25,3.18,3.18,0,0,0-2.54,1.22A6.14,6.14,0,0,0,88.33,13.48Z"/>
          <path class="cls-1" d="M128.63,18V14.19a1.79,1.79,0,0,0-.46-1.42,3.45,3.45,0,0,0-1.82-.48c-.44,0-.67-.19-.68-.43s.18-.32.58-.32l.69,0h1.28q2.64,0,3.06,0c.79-.06,1.25-.08,1.37-.08s.4.1.4.31-.17.33-.52.42a1.68,1.68,0,0,0-1.29,1.88v6l0,.55-.1.26a1.25,1.25,0,0,1-.5.13,4.78,4.78,0,0,0-1.42.62l-1.12.66A14,14,0,0,1,121,24.24a11.22,11.22,0,0,1-11.67-11.69,12.33,12.33,0,0,1,3.47-9A11.63,11.63,0,0,1,121.49,0a17.14,17.14,0,0,1,4.28.58A12.58,12.58,0,0,1,129.38,2a.65.65,0,0,0,.29.14A.68.68,0,0,0,130,2l.41-.31a.42.42,0,0,1,.24-.1c.2,0,.31.27.31.8a9.54,9.54,0,0,0,.1,1.17l.17,1.6c.06.43.14.87.24,1.3a1.75,1.75,0,0,1,.08.49c0,.28-.11.42-.34.43s-.27-.09-.37-.29a10.69,10.69,0,0,0-4.1-4.43A11.06,11.06,0,0,0,120.87,1a7.85,7.85,0,0,0-6.31,2.93,11.43,11.43,0,0,0-2.44,7.57,12.54,12.54,0,0,0,2.8,8.33,8.76,8.76,0,0,0,7,3.35,7.51,7.51,0,0,0,6.2-2.8A3.86,3.86,0,0,0,128.63,18Z"/>
          <path class="cls-1" d="M137.37,14.51l0,.41a8.22,8.22,0,0,0,1.76,5.35,5.39,5.39,0,0,0,4.34,2.17,7.5,7.5,0,0,0,4.42-1.82.54.54,0,0,1,.28-.13c.18,0,.26.08.26.29,0,.37-.43.9-1.3,1.58A8.18,8.18,0,0,1,142,24.25a6.57,6.57,0,0,1-5.1-2.31,8.27,8.27,0,0,1-2-5.71A8.3,8.3,0,0,1,137,10.57a6.41,6.41,0,0,1,5-2.43,5.82,5.82,0,0,1,5,2.59,9.35,9.35,0,0,1,.92,1.71,4.61,4.61,0,0,1,.46,1.51c0,.41-.4.61-1.21.61h-1.38l-1.27,0Zm.11-1h6.31c1,0,1.48-.19,1.48-.59a3.75,3.75,0,0,0-1.26-2.7,3.84,3.84,0,0,0-2.73-1.25,3.17,3.17,0,0,0-2.54,1.22A6.14,6.14,0,0,0,137.48,13.48Z"/>
          <path class="cls-1" d="M154.5,20.75a3.71,3.71,0,0,0,.28,1.77,1.64,1.64,0,0,0,1.22.57l.86.1c.45.06.67.22.65.47s-.18.31-.5.31-.62,0-1.21-.09c-.34,0-.78,0-1.31,0l-1.2,0-1.36.08a5.71,5.71,0,0,0-.58.05,6.51,6.51,0,0,1-.67.06c-.34,0-.51-.12-.51-.35s.12-.32.34-.4l.35-.11a1.32,1.32,0,0,0,.83-.71,4,4,0,0,0,.24-1.61V12.72a4.3,4.3,0,0,0-.3-2,1.45,1.45,0,0,0-1.29-.47c-.47,0-.7-.09-.69-.29s.33-.35,1-.54a20.64,20.64,0,0,0,2.65-1.2l1-.46c.16,0,.25.16.25.45ZM153.33.45c.3,0,.61.25.92.75l.45.71a.87.87,0,0,1,.19.46,2.06,2.06,0,0,1-.64,1.2c-.44.51-.79.77-1.05.77s-.58-.25-1-.75a2.19,2.19,0,0,1-.62-1.18,2.25,2.25,0,0,1,.68-1.2C152.73.7,153.08.45,153.33.45Z"/>
          <path class="cls-1" d="M160.68,24.32v-.13a2.7,2.7,0,0,1-1.27-2.11,4.45,4.45,0,0,1,2.18-3.7,5,5,0,0,1-2.48-4.6,5.46,5.46,0,0,1,1.63-4,5.6,5.6,0,0,1,4.09-1.61,7.28,7.28,0,0,1,4,1.12,2.09,2.09,0,0,0,.91.41,3.1,3.1,0,0,0,1.51-.48,2.08,2.08,0,0,0,1-.94l.25-.71a.29.29,0,0,1,.29-.22c.22,0,.32.14.32.45a7.27,7.27,0,0,1-.29,1.45,7.75,7.75,0,0,1-.51,1.5,1.67,1.67,0,0,1-1.1.85c-.23.07-.35.18-.35.33a1.93,1.93,0,0,0,.05.35,6.13,6.13,0,0,1,.17,1.58,4.88,4.88,0,0,1-1.73,3.7,5.83,5.83,0,0,1-4,1.58,13.41,13.41,0,0,1-2.22-.22,3,3,0,0,0-.6-.08,1.55,1.55,0,0,0-1.13.65,2.08,2.08,0,0,0-.54,1.35,1.41,1.41,0,0,0,1,1.37,10.26,10.26,0,0,0,3.49.41,12.54,12.54,0,0,1,5.2.77A2.69,2.69,0,0,1,172,26a4.34,4.34,0,0,1-2.13,3.63,8.89,8.89,0,0,1-5.23,1.49,10,10,0,0,1-4.83-1,3,3,0,0,1-1.85-2.7C158,26,158.89,24.92,160.68,24.32Zm.82.28a2.78,2.78,0,0,0-.53,4.91,6,6,0,0,0,3.41.85,8.39,8.39,0,0,0,4.24-1,2.84,2.84,0,0,0,1.71-2.45c0-1.15-.88-1.73-2.63-1.73-.24,0-.89,0-2-.11l-2-.13A11,11,0,0,1,161.5,24.6Zm3.41-15.83A2.9,2.9,0,0,0,162.53,10a4.86,4.86,0,0,0-1,3.05,6.44,6.44,0,0,0,1,3.8,3.14,3.14,0,0,0,2.66,1.48,3,3,0,0,0,2.45-1.19,4.94,4.94,0,0,0,.94-3.15,6.28,6.28,0,0,0-1.07-3.75A3.17,3.17,0,0,0,164.91,8.77Z"/>
          <path class="cls-1" d="M176,14.51l0,.41a8.18,8.18,0,0,0,1.77,5.35,5.37,5.37,0,0,0,4.33,2.17,7.55,7.55,0,0,0,4.43-1.82.54.54,0,0,1,.28-.13c.17,0,.26.08.26.29,0,.37-.44.9-1.31,1.58a8.18,8.18,0,0,1-5.12,1.89,6.55,6.55,0,0,1-5.09-2.31,8.28,8.28,0,0,1-2.06-5.71,8.35,8.35,0,0,1,2.12-5.66,6.45,6.45,0,0,1,5-2.43,5.82,5.82,0,0,1,5,2.59,9.39,9.39,0,0,1,.91,1.71A4.71,4.71,0,0,1,186.9,14c0,.41-.41.61-1.22.61H184.3l-1.26,0Zm.11-1h6.32c1,0,1.47-.19,1.47-.59a3.75,3.75,0,0,0-1.26-2.7,3.84,3.84,0,0,0-2.73-1.25,3.19,3.19,0,0,0-2.54,1.22A6.22,6.22,0,0,0,176.09,13.48Z"/>
          <path class="cls-1" d="M193.52,11.53q2.16-3.39,4-3.39a2.87,2.87,0,0,1,1.52.69c.63.46.95.83,1,1.12s-.19.52-.59,1-.7.75-.88.76a3.13,3.13,0,0,1-.81-.44,2.65,2.65,0,0,0-1.53-.56,2.47,2.47,0,0,0-1.89.82,2.89,2.89,0,0,0-.76,2v6.63a4.34,4.34,0,0,0,.42,2.22,1.81,1.81,0,0,0,1.46.76l1,.07c.39,0,.59.15.59.37s-.17.38-.52.38c-.09,0-.38,0-.88-.1-.23,0-.58,0-1,0l-1.35,0h-.82a16.31,16.31,0,0,0-2.07.09l-.67.09q-.51,0-.51-.36c0-.21.19-.35.58-.42a1.36,1.36,0,0,0,1-.69,6,6,0,0,0,.24-2.14v-8c0-1.43-.69-2.14-2.05-2.14l-.64,0q-.42,0-.42-.39c0-.15.09-.26.28-.34l.41-.06a10.06,10.06,0,0,0,4.13-1.63,1.06,1.06,0,0,1,.43-.15c.28,0,.43.2.43.63l0,.35Z"/>
        </g>
        <g>
          <path class="cls-1" d="M28.6,38.89c-.27,2.64-2.45,4.79-5.84,4.79-3.84,0-6.28-2.41-6.28-6.2a6,6,0,0,1,6.28-6.19c2.58,0,5.37,1.17,5.74,4.28H27.27c-.36-2.25-2.38-3.16-4.51-3.16-2.93,0-5,1.64-5,5.07,0,2.63,1.37,5.08,5,5.08,2.81,0,4.2-1.42,4.61-3.67Z"/>
          <path class="cls-1" d="M30.93,31.58h6.43c2,0,3.84.71,3.84,3.19a2.87,2.87,0,0,1-2.32,2.86v0c1.68.26,2,1.34,2.1,3.27a6.47,6.47,0,0,0,.42,2.45H40.08A5.45,5.45,0,0,1,39.76,41c0-2.08-.83-2.77-2.86-2.77H32.16v5.19H30.93Zm1.23,5.49h5.17c1.34,0,2.55-.49,2.55-2.3s-1.31-2.06-2.43-2.06H32.16Z"/>
          <path class="cls-1" d="M43.73,31.58H45V43.39H43.73Z"/>
          <path class="cls-1" d="M55.84,35c-.17-2-1.8-2.54-3.7-2.54s-3.34.74-3.34,2.08c0,1.54,1.44,1.9,4.31,2.38,2.15.37,4.3.86,4.3,3.13,0,2.89-2.63,3.68-4.93,3.68-3,0-5.17-1-5.35-4.19h1.22c.22,2.47,1.87,3.07,4.13,3.07,1.77,0,3.61-.48,3.61-2.35s-2.15-2-4.3-2.36c-2.81-.45-4.32-1.24-4.32-3.14,0-2.58,2.38-3.42,4.67-3.42S57,32.14,57.06,35Z"/>
          <path class="cls-1" d="M59.64,31.58h1.23V43.39H59.64Z"/>
          <path class="cls-1" d="M71.76,35c-.17-2-1.81-2.54-3.71-2.54s-3.34.74-3.34,2.08c0,1.54,1.44,1.9,4.32,2.38,2.15.37,4.3.86,4.3,3.13,0,2.89-2.63,3.68-4.93,3.68-3,0-5.17-1-5.36-4.19h1.23c.21,2.47,1.86,3.07,4.13,3.07,1.77,0,3.6-.48,3.6-2.35s-2.15-2-4.29-2.36c-2.81-.45-4.32-1.24-4.32-3.14,0-2.58,2.38-3.42,4.66-3.42S72.9,32.14,73,35Z"/>
          <path class="cls-1" d="M93.07,38.89c-.26,2.64-2.45,4.79-5.84,4.79-3.83,0-6.28-2.41-6.28-6.2a6,6,0,0,1,6.28-6.19c2.58,0,5.38,1.17,5.74,4.28H91.75c-.37-2.25-2.38-3.16-4.52-3.16-2.92,0-5,1.64-5,5.07,0,2.63,1.38,5.08,5,5.08,2.81,0,4.2-1.42,4.62-3.67Z"/>
          <path class="cls-1" d="M95.41,31.58h9.39v1.13H96.63v4h7.87v1.12H96.63v4.43h8.3v1.13H95.41Z"/>
          <path class="cls-1" d="M106.88,31.58h1.47l8.25,10.09h0V31.58h1.22V43.39h-1.42l-8.3-10.09h0V43.39h-1.23Z"/>
          <path class="cls-1" d="M124.09,32.71h-4.62V31.58H130v1.13h-4.63V43.39h-1.23Z"/>
          <path class="cls-1" d="M131.64,31.58H141v1.13h-8.17v4h7.87v1.12h-7.87v4.43h8.3v1.13h-9.52Z"/>
          <path class="cls-1" d="M143.21,31.58h6.43c2,0,3.84.71,3.84,3.19a2.87,2.87,0,0,1-2.32,2.86v0c1.67.26,2,1.34,2.1,3.27a6.1,6.1,0,0,0,.42,2.45h-1.33A5.5,5.5,0,0,1,152,41c0-2.08-.83-2.77-2.86-2.77h-4.75v5.19h-1.22Zm1.22,5.49h5.18c1.34,0,2.54-.49,2.54-2.3s-1.3-2.06-2.43-2.06h-5.29Z"/>
        </g>
      </g>
    </g>
  </g>
</svg>
